<svg xmlns="http://www.w3.org/2000/svg" viewBox="0 0 1017 430" width="1017" height="430"><style></style><g id="layer1"><g id="g1614"><path id="path991-0" fill-rule="evenodd" d="M895.21 215.08l121.63 214.34-140.09.24-51.45-90.96-51.44 90.96-140.08-.24 121.63-214.34L633.78 0h139.38l52.14 91.9L877.46 0h139.38L895.21 215.08zM483.4.14c118.55 0 214.66 96.1 214.66 214.64 0 118.54-96.11 214.64-214.66 214.64-118.56 0-214.66-96.1-214.66-214.64C268.74 96.24 364.84.14 483.4.14zM521 126.53c0-20.11-17.43-38.12-37.01-38.12-19.6 0-35.44 18.01-35.44 38.12l-.04 175.83c0 20.13 15.88 36.43 35.47 36.43 19.59 0 37.02-15.79 37.02-35.91V126.53zM.02 429.42V0h267.03l7.87 117.13H130.01v56.2h118.18v117.5H130.01v138.59H.02z" fill="#000"/></g></g></svg>